# xmcd
#
# Track frame offsets:
#	150
#	12145
#	26215
#	38008
#	51255
#	64866
#	78361
#	90593
#	103866
#	119137
#	132975
#	145623
#
# Disc length: 2142 seconds
#
# Revision: 1
# Processed by: cddbd v1.5.2PL0 Copyright (c) Steve Scherf et al.
# Submitted via: audiograbber 1.83.01
#
DISCID=a2085c0c
DTITLE=Sandy River Bluegrass Band - Are You Ready?
DYEAR=2003
DGENRE=Bluegrass
TTITLE0=Are You Ready?
TTITLE1=Dismal Creek
TTITLE2=Hammer Down
TTITLE3=Just to See You Smile
TTITLE4=Little Country Grave
TTITLE5=You Took the Love We Both Shared
TTITLE6=Momma's Dream
TTITLE7=McDowell Country Flood
TTITLE8=Mingo Miner
TTITLE9=Rebel Soldier
TTITLE10=Winter Wind
TTITLE11=Darlin' Won't You Be Mine
EXTD=
EXTT0=
EXTT1=
EXTT2=
EXTT3=
EXTT4=
EXTT5=
EXTT6=
EXTT7=
EXTT8=
EXTT9=
EXTT10=
EXTT11=
PLAYORDER=
